# Blender v2.93.7 OBJ File: ''
# www.blender.org
mtllib left_knee.003c.mtl
o left_front_knee_c_left_knee.003
v -0.007184 0.421550 0.032705
v 0.003004 0.455909 -0.025512
v -0.099682 0.448052 -0.009756
v -0.000758 0.397378 -0.069626
v -0.091816 0.393066 -0.072776
v -0.084622 0.399617 0.027033
v -0.042484 0.105211 -0.012714
v -0.035238 0.121478 -0.013036
v -0.022676 0.108423 -0.016770
v -0.022636 0.113182 -0.000747
v -0.043545 0.135362 0.008356
v -0.001487 0.361296 -0.030289
v -0.089078 0.365836 -0.008527
v -0.086979 0.412641 -0.020860
v -0.007887 0.431249 -0.029372
v -0.027506 0.154700 -0.042048
v -0.048449 0.241802 0.011754
v -0.028462 0.242722 0.012080
v -0.049049 0.172698 -0.023935
v -0.024279 0.158819 0.028847
v -0.005384 -0.167241 -0.067580
v -0.030941 -0.165695 -0.064243
v -0.003979 -0.148401 0.086456
v -0.030074 -0.122644 0.067872
v -0.024282 -0.040849 0.072005
v -0.031167 0.099894 0.051998
v -0.035649 0.340452 0.007388
v -0.023749 -0.190248 -0.005794
v -0.009894 -0.190164 0.000521
v -0.021676 -0.152496 -0.003314
v -0.050517 0.339766 0.007671
v -0.036710 -0.163906 0.086035
v -0.049665 0.121337 -0.073221
v -0.004651 0.135209 -0.062745
v -0.013337 0.343396 -0.000792
v -0.073218 0.339256 -0.000639
v -0.049032 -0.198211 -0.053192
v -0.120715 0.004978 -0.027868
v -0.094177 0.046219 0.029476
v -0.095194 0.043918 -0.039190
v -0.087737 -0.140416 -0.062883
v -0.096267 0.088129 -0.065791
v -0.085474 -0.139909 0.055579
v -0.094478 0.090478 0.049915
v -0.132390 -0.022004 0.011001
v -0.128475 -0.090856 0.042604
v -0.122866 -0.155086 -0.021228
v -0.125256 -0.056389 -0.052927
v 0.105919 0.097102 0.048294
v 0.074875 0.066877 0.048282
v 0.075550 0.037769 0.048871
v 0.078695 -0.017193 0.049949
v 0.095631 -0.124460 0.054704
v 0.037229 0.045682 0.049300
v 0.036725 -0.043377 0.051129
v -0.038881 -0.142900 0.053600
v -0.053866 0.105643 0.019660
v 0.039863 0.001571 0.050166
v -0.045467 0.126984 0.031561
v -0.058526 0.131400 0.045149
v 0.080253 -0.058912 0.050776
v -0.035083 -0.176967 0.047496
v -0.029634 -0.174146 -0.013326
v -0.031507 -0.158788 0.017312
v -0.038001 -0.165467 -0.058249
v -0.046090 -0.156508 -0.014746
v -0.032772 -0.154009 -0.024375
v -0.045718 -0.157233 0.005971
v -0.045081 -0.172724 0.000754
v -0.048383 0.115548 0.005154
v -0.047748 0.123138 -0.016210
v -0.055394 0.101979 -0.066294
v -0.044435 0.102135 -0.027634
v -0.046718 0.125182 -0.059243
v 0.106487 0.086142 0.026533
v 0.097063 -0.119208 -0.063458
v 0.104058 0.079673 -0.067815
v 0.104409 0.090597 -0.047744
v 0.093135 -0.135408 -0.043649
v 0.096280 -0.134732 -0.024463
v 0.105728 -0.124270 -0.003068
v 0.105153 -0.134023 0.005037
v 0.096710 -0.128989 0.032068
v 0.108883 -0.123812 -0.019400
v 0.097718 -0.131144 -0.012701
v 0.092659 -0.135407 -0.064823
v 0.104870 0.099482 -0.066896
v 0.111593 -0.137694 -0.015284
v 0.106365 -0.130987 -0.012891
v -0.129683 -0.100365 -0.022324
v -0.136061 -0.035409 -0.014089
v -0.131122 -0.069885 0.005774
v 0.106365 -0.130987 -0.012891
v -0.162016 -0.107599 -0.008466
v -0.162119 -0.078283 -0.011077
v -0.160472 -0.089368 0.011426
v -0.123531 -0.089835 -0.003845
v 0.111049 -0.138774 -0.009602
v -0.061265 -0.175270 -0.016160
v -0.053104 -0.161297 0.015268
v -0.049598 -0.145045 -0.007734
v -0.044250 -0.163761 -0.013544
v 0.017080 -0.158889 -0.004190
v -0.066049 0.103956 -0.024781
v -0.064338 0.126349 -0.008608
v 0.004285 0.113808 -0.009575
v -0.067717 0.103094 0.009129
v -0.047350 0.447425 0.022066
v -0.043512 0.432590 -0.071537
vn 0.1792 0.9181 0.3534
vn -0.0582 0.9916 0.1152
vn 0.1112 0.9513 0.2874
vn -0.3457 0.4484 -0.8243
vn -0.4945 0.6234 -0.6056
vn -0.1978 0.2713 -0.9419
vn 0.1545 0.8095 -0.5663
vn 0.4575 0.5162 -0.7240
vn 0.1549 0.8093 -0.5666
vn -0.2675 0.3036 0.9145
vn -0.4626 0.4406 0.7694
vn -0.3423 0.3572 0.8690
vn -0.2117 0.0750 -0.9745
vn 0.2090 -0.9376 0.2780
vn -0.2508 -0.5604 0.7893
vn 0.1299 -0.7269 0.6743
vn -0.2023 -0.7198 -0.6640
vn -0.5089 -0.1979 -0.8378
vn -0.2397 0.7215 -0.6496
vn -0.1935 0.9443 0.2663
vn 0.5803 0.0424 0.8133
vn -0.0102 0.5237 -0.8518
vn -0.3392 0.4340 -0.8346
vn -0.6022 -0.7949 0.0736
vn 0.8385 -0.2805 -0.4672
vn -0.1250 0.0699 -0.9897
vn -0.0441 -0.9916 0.1217
vn -0.7579 -0.6188 0.2066
vn -0.5801 -0.0001 0.8145
vn -0.7735 0.0869 0.6278
vn -0.0148 -0.0326 0.9994
vn 0.6692 0.7145 -0.2039
vn -0.7463 -0.1660 -0.6446
vn -0.9932 -0.0685 0.0939
vn 0.1456 -0.9405 -0.3069
vn -0.9630 0.0700 -0.2602
vn -0.9252 -0.0858 -0.3696
vn -0.9411 -0.2742 0.1980
vn 0.8134 0.1207 0.5691
vn 0.3751 0.9197 -0.1159
vn 0.9734 0.1794 0.1424
vn -0.6315 -0.4214 -0.6509
vn -0.9548 0.2857 -0.0825
vn -0.2436 0.6695 0.7017
vn -0.9965 -0.0678 0.0493
vn -0.9877 0.0585 -0.1450
vn -0.9711 -0.0522 0.2330
vn -0.9984 -0.0189 0.0533
vn -0.9890 0.0451 0.1406
vn -0.9232 -0.0035 0.3842
vn -0.9828 0.0861 -0.1634
vn 0.2849 0.7183 -0.6347
vn -0.9547 -0.2974 0.0121
vn -0.7975 -0.0332 0.6024
vn -0.9806 0.0785 -0.1799
vn 0.8013 -0.0456 -0.5966
vn 0.9029 -0.3857 -0.1896
vn -0.5804 -0.7731 0.2557
vn 0.8936 -0.3959 -0.2116
vn -0.8910 0.4011 0.2126
vn -0.9511 -0.2078 0.2285
vn -0.9765 -0.1454 0.1588
vn -0.9403 -0.2911 -0.1762
vn 0.5658 -0.1888 0.8026
vn 0.3622 -0.2519 0.8974
vn 0.6648 -0.0136 0.7469
vn 0.2421 0.1739 0.9545
vn 0.3198 0.1676 0.9326
vn -0.8154 -0.5447 -0.1961
vn -0.8214 -0.3585 0.4435
vn 0.9455 -0.1883 0.2656
vn 0.0582 -0.7362 -0.6742
vn -0.9783 -0.1021 -0.1805
vn -0.3347 -0.1780 0.9253
vn 0.4439 0.0569 0.8942
vn 0.7761 -0.5416 -0.3230
vn -0.1680 -0.9536 0.2498
vn -0.3051 0.1382 0.9422
vn -0.3433 0.1352 0.9295
vn 0.2734 0.0607 0.9600
vn -0.2222 -0.0150 0.9749
vn 0.0456 -0.6919 0.7205
vn 0.5289 -0.2217 0.8192
vn 0.0120 -0.1368 0.9905
vn -0.0008 -0.8017 -0.5978
vn 0.0584 -0.8637 -0.5006
vn -0.0596 0.0989 0.9933
vn -0.0989 0.0929 0.9908
vn 0.5061 -0.8270 -0.2449
vn 0.3920 -0.8378 0.3802
vn -0.1445 -0.9577 0.2488
vn -0.9872 0.0095 0.1592
vn -0.9866 0.1340 -0.0936
vn -0.9446 -0.3256 -0.0421
vn -0.8906 -0.3918 0.2307
vn -0.9956 0.0628 0.0691
vn 0.9825 0.1856 0.0179
vn -0.9958 -0.0911 -0.0030
vn -0.8372 0.5469 -0.0059
vn -0.5141 0.0889 -0.8531
vn -0.9990 -0.0376 -0.0221
vn -0.9115 0.0150 0.4110
vn -0.9971 -0.0373 0.0662
vn -0.9998 -0.0145 0.0157
vn -0.9998 -0.0148 0.0158
vn -0.9998 -0.0146 0.0157
vn -0.9998 -0.0139 0.0153
vn 0.2097 0.4177 0.8840
vn -0.7013 -0.2333 -0.6736
vn -0.7258 -0.5158 0.4552
vn 0.3820 -0.9242 -0.0033
vn -0.0177 0.0188 0.9997
vn -0.0196 0.0198 0.9996
vn -0.0190 0.0195 0.9996
vn -0.0174 0.0186 0.9997
vn -0.0751 0.0323 0.9967
vn 0.0644 -0.0665 0.9957
vn 0.0420 -0.0071 0.9991
vn -0.1596 0.2319 0.9596
vn -0.0130 0.0347 0.9993
vn -0.3093 0.0002 0.9510
vn 0.0190 0.0210 0.9996
vn 0.0194 0.0212 0.9996
vn 0.0156 0.0203 0.9997
vn 0.0154 0.0204 0.9997
vn 0.0155 0.0205 0.9997
vn 0.4964 -0.5636 0.6603
vn 0.0321 0.0673 0.9972
vn 0.0154 0.0205 0.9997
vn 0.0148 0.0252 0.9996
vn 0.0154 0.0206 0.9997
vn -0.1992 0.0120 0.9799
vn 0.3599 0.5459 0.7567
vn 0.9949 -0.0517 0.0867
vn -0.4682 -0.8797 -0.0828
vn -0.1013 0.9880 0.1163
vn 0.0824 0.9960 0.0334
vn -0.4521 -0.4822 -0.7504
vn 0.0230 0.9800 -0.1976
vn -0.9363 0.3500 0.0291
vn -0.9708 -0.1946 -0.1404
vn -0.9742 -0.1070 0.1987
vn 0.0955 -0.9893 -0.1102
vn -0.9731 -0.1411 0.1822
vn -0.9522 0.1097 -0.2850
vn -0.9423 0.3346 0.0025
vn -0.9504 -0.2831 -0.1288
vn 0.6442 -0.7349 0.2121
vn -0.9802 -0.0503 -0.1917
vn -0.0953 0.9173 -0.3867
vn -0.9996 0.0188 -0.0230
vn 0.9737 -0.2277 -0.0089
vn 0.9978 -0.0449 0.0487
vn 0.9994 -0.0351 0.0016
vn 0.9992 -0.0402 0.0046
vn 0.9992 -0.0403 0.0058
vn 0.9990 -0.0327 -0.0299
vn 0.9987 -0.0502 0.0099
vn 0.9119 -0.3872 -0.1358
vn 0.9815 0.0849 0.1718
vn 0.0512 -0.9788 0.1983
vn 0.5839 -0.8068 0.0902
vn 0.2451 0.9684 0.0460
vn 0.1632 0.9848 0.0591
vn 0.6897 -0.6774 -0.2558
vn 0.1314 -0.9708 0.2005
vn 0.1587 -0.8922 0.4229
vn 0.1571 -0.9846 0.0761
vn 0.2376 -0.9642 -0.1177
vn 0.2240 -0.9746 -0.0051
vn 0.1831 -0.9395 0.2895
vn -0.5758 -0.5834 -0.5728
vn 0.3237 -0.8378 0.4397
vn -0.6181 -0.2736 0.7370
vn -0.0131 0.0875 -0.9961
vn -0.0033 -0.0200 -0.9998
vn -0.0062 -0.0132 -0.9999
vn -0.0079 -0.0130 -0.9999
vn -0.0112 -0.0207 -0.9997
vn -0.0125 -0.0215 -0.9997
vn -0.0030 0.0465 -0.9989
vn -0.0052 -0.1919 -0.9814
vn -0.4507 -0.8926 0.0124
vn -0.0545 -0.9789 0.1971
vn 0.9523 -0.2246 0.2066
vn -0.3211 0.9464 -0.0346
vn -0.3585 0.9334 -0.0134
vn 0.2986 0.9541 -0.0230
vn -0.9160 0.3809 -0.1263
vn 0.1269 0.8872 -0.4435
vn -0.0935 -0.4566 0.8847
vn 0.0192 0.9220 -0.3867
vn 0.2608 0.9641 0.0505
vn 0.0739 0.9970 -0.0250
vn 0.0157 0.9069 0.4211
vn -0.3889 -0.9162 0.0960
vn -0.2545 -0.9619 0.0997
vn 0.9831 0.0801 0.1647
vn 0.9834 0.0590 -0.1718
vn 0.9897 0.1396 0.0303
vn 0.9274 -0.2672 -0.2618
vn 0.8156 0.5181 -0.2578
vn 0.4845 -0.1604 -0.8600
vn 0.7050 0.3246 0.6305
vn 0.0041 0.6711 0.7414
vn 0.4633 0.3054 -0.8319
vn 0.6914 0.4795 0.5405
vn -0.9918 -0.1228 0.0364
vn -0.9414 -0.1236 -0.3137
vn -0.9699 -0.0655 -0.2344
vn -0.9037 0.2175 -0.3689
vn -0.9848 -0.0444 0.1678
vn -0.9981 -0.0323 0.0534
vn -0.9388 0.3414 -0.0450
vn -0.9924 -0.1055 0.0636
vn 0.0000 0.0000 1.0000
vn -0.9998 -0.0182 0.0110
vn -0.9996 -0.0182 -0.0220
vn 0.6090 -0.7813 -0.1367
vn 0.5919 -0.7592 0.2709
vn 0.0266 -0.3175 0.9479
vn -0.3574 -0.8802 0.3122
vn 0.9652 -0.2606 -0.0217
vn 0.9991 -0.0412 0.0049
vn -0.3767 -0.0835 -0.9226
vn 0.2073 0.6683 -0.7144
vn 0.2709 -0.9532 0.1346
vn -0.4436 0.7907 0.4220
vn -0.4231 0.7740 0.4711
vn -0.5845 -0.5751 0.5724
vn 0.1583 -0.0870 -0.9836
vn 0.1861 0.8867 0.4232
vn 0.2563 -0.7224 0.6422
vn 0.9978 -0.0032 0.0669
vn 0.8182 0.5552 0.1493
vn -0.5083 -0.8580 0.0738
vn 0.5077 -0.8440 0.1728
vn 0.4848 -0.8057 -0.3403
vn -0.0835 0.8810 0.4657
vn -0.0535 0.5636 -0.8243
vn -0.8736 -0.4263 0.2348
vn 0.4569 0.4993 -0.7362
vn -0.9373 0.3355 0.0942
vn -0.0451 0.2844 -0.9576
vn 0.1173 0.3249 -0.9385
vn 0.0630 -0.9926 0.1042
vn 0.1349 0.7994 0.5854
vn 0.5207 -0.8221 0.2303
vn 0.0942 0.5781 -0.8105
vn 0.1425 -0.9896 -0.0181
vn 0.1193 0.5911 0.7977
vn -0.9930 0.1091 -0.0461
vn -0.1280 0.2007 0.9713
vn 0.3609 0.7741 0.5200
vn 0.0351 -0.0116 -0.9993
vn -0.1242 0.9301 -0.3457
usemtl Default_OBJ.005
s 1
f 2//1 3//2 108//3
f 5//4 3//5 109//6
f 2//7 4//8 109//9
f 108//10 3//11 6//12
f 7//13 8//13 9//13
f 7//14 9//14 10//14
f 11//15 7//15 10//15
f 12//16 6//16 13//16
f 4//17 12//17 13//17
f 4//18 13//18 14//18
f 15//19 4//19 14//19
f 15//20 14//20 6//20
f 12//21 15//21 6//21
f 16//22 17//22 18//22
f 19//23 17//23 16//23
f 20//24 19//24 16//24
f 11//25 19//25 20//25
f 16//26 21//26 22//26
f 23//27 22//27 21//27
f 23//28 24//28 22//28
f 25//29 24//29 23//29
f 18//30 11//30 20//30
f 17//31 11//31 18//31
f 8//32 11//32 10//32
f 18//33 20//33 26//33
f 27//34 16//34 18//34
f 28//35 21//35 29//35
f 30//36 21//36 28//36
f 27//37 18//37 26//37
f 23//38 30//38 29//38
f 25//39 27//39 26//39
f 23//40 21//40 30//40
f 16//41 26//41 9//41
f 8//42 16//42 9//42
f 26//43 10//43 9//43
f 16//44 8//44 10//44
f 20//45 16//45 10//45
f 20//46 10//46 26//46
f 17//47 11//47 26//47
f 31//48 19//48 17//48
f 30//49 22//49 28//49
f 31//50 17//50 26//50
f 24//51 28//51 32//51
f 24//52 29//52 28//52
f 24//53 30//53 29//53
f 33//54 22//54 16//54
f 32//55 25//55 24//55
f 25//56 31//56 26//56
f 16//57 26//57 7//57
f 24//58 22//58 30//58
f 7//59 33//59 16//59
f 8//60 33//60 7//60
f 19//61 33//61 8//61
f 26//62 11//62 7//62
f 19//63 8//63 11//63
f 27//64 16//64 34//64
f 27//65 34//65 35//65
f 34//66 16//66 21//66
f 35//67 25//67 23//67
f 27//68 25//68 35//68
f 5//69 36//69 13//69
f 36//70 6//70 13//70
f 35//71 12//71 1//71
f 4//72 12//72 5//72
f 6//73 36//73 32//73
f 36//74 19//74 31//74
f 33//75 37//75 22//75
f 37//76 22//76 28//76
f 32//77 37//77 28//77
f 31//78 32//78 25//78
f 36//79 32//79 31//79
f 33//80 37//80 21//80
f 34//81 33//81 21//81
f 19//82 33//82 34//82
f 35//83 19//83 34//83
f 36//84 19//84 35//84
f 36//85 5//85 12//85
f 36//86 12//86 35//86
f 6//87 32//87 23//87
f 6//88 23//88 1//88
f 37//89 21//89 29//89
f 32//90 29//90 23//90
f 32//91 37//91 29//91
f 1//92 35//92 23//92
f 2//93 4//93 1//93
f 3//94 14//94 6//94
f 3//95 5//95 14//95
f 14//96 5//96 13//96
f 1//97 4//97 15//97
f 1//98 15//98 12//98
f 38//99 39//99 40//99
f 41//100 38//100 40//100
f 41//101 40//101 42//101
f 43//102 39//102 38//102
f 43//103 44//103 39//103
f 44//104 42//105 40//106
f 39//107 44//104 40//106
f 43//108 45//108 46//108
f 41//109 47//109 48//109
f 43//110 46//110 47//110
f 41//111 43//111 47//111
f 49//112 50//113 51//114
f 49//112 51//114 52//115
f 49//116 52//116 53//116
f 49//117 54//117 50//117
f 55//118 43//118 56//118
f 49//119 57//119 54//119
f 55//120 56//120 53//120
f 54//121 57//121 58//121
f 58//122 43//123 55//124
f 52//125 54//126 58//122
f 59//127 60//127 57//127
f 61//128 55//128 53//128
f 51//129 54//126 52//125
f 58//122 44//130 43//123
f 50//131 54//126 51//129
f 52//125 55//124 61//125
f 52//125 58//122 55//124
f 52//132 61//132 53//132
f 57//133 44//133 58//133
f 62//134 63//134 64//134
f 62//135 65//135 63//135
f 66//136 64//136 67//136
f 66//137 68//137 64//137
f 66//138 67//138 63//138
f 56//139 65//139 66//139
f 56//140 66//140 68//140
f 69//141 66//141 65//141
f 62//142 68//142 69//142
f 62//143 69//143 65//143
f 62//144 56//144 68//144
f 57//145 60//145 70//145
f 71//146 72//146 57//146
f 60//147 71//147 70//147
f 60//148 72//148 71//148
f 57//149 71//149 73//149
f 59//150 73//150 70//150
f 70//151 71//151 74//151
f 59//152 70//152 74//152
f 53//153 75//153 49//153
f 76//154 77//155 78//156
f 76//157 78//157 75//157
f 76//158 75//158 53//158
f 79//159 76//159 80//159
f 81//160 53//160 82//160
f 82//161 53//161 83//161
f 84//162 81//162 85//162
f 76//163 53//163 81//163
f 76//164 81//164 84//164
f 76//165 84//165 80//165
f 56//166 83//166 53//166
f 64//167 83//167 56//167
f 67//168 79//168 83//168
f 67//169 83//169 64//169
f 65//170 86//170 79//170
f 65//171 79//171 67//171
f 69//172 66//172 63//172
f 69//173 63//173 64//173
f 68//174 69//174 64//174
f 76//175 86//175 41//175
f 72//176 41//177 42//178
f 72//176 76//179 41//177
f 77//180 76//179 72//176
f 87//181 77//181 72//181
f 86//182 65//182 41//182
f 43//183 41//183 65//183
f 56//184 43//184 65//184
f 57//185 73//185 70//185
f 57//186 72//186 42//186
f 44//187 57//187 42//187
f 60//188 59//188 74//188
f 60//189 74//189 72//189
f 75//190 57//190 49//190
f 75//191 59//191 57//191
f 78//192 73//192 59//192
f 78//193 59//193 75//193
f 78//194 72//194 73//194
f 87//195 72//195 78//195
f 83//196 79//196 80//196
f 83//197 80//197 82//197
f 64//198 56//198 62//198
f 65//199 67//199 63//199
f 74//200 71//200 73//200
f 72//201 74//201 73//201
f 82//202 80//202 85//202
f 80//203 84//203 88//203
f 89//204 88//204 84//204
f 85//205 89//205 84//205
f 38//206 41//206 48//206
f 43//207 38//207 45//207
f 46//208 90//208 47//208
f 90//209 48//209 47//209
f 91//210 48//210 90//210
f 91//211 38//211 48//211
f 45//212 91//212 92//212
f 45//213 92//213 46//213
f 45//214 38//214 91//214
f 91//215 90//215 92//215
f 93//216 89//217 85//218
f 93//219 88//220 89//216
f 85//221 88//221 93//221
f 85//222 80//222 88//222
f 86//223 76//223 79//223
f 87//224 78//156 77//155
f 90//225 94//225 95//225
f 92//226 90//226 95//226
f 90//227 46//227 94//227
f 92//228 95//228 96//228
f 46//229 92//229 96//229
f 46//230 96//230 94//230
f 97//231 94//231 95//231
f 97//232 95//232 96//232
f 97//233 96//233 94//233
f 89//234 81//234 82//234
f 98//235 89//235 82//235
f 82//236 85//236 98//236
f 93//216 89//237 98//238
f 93//239 81//240 89//216
f 98//241 81//241 93//241
f 85//242 81//242 98//242
f 99//243 100//243 101//243
f 99//244 101//244 102//244
f 102//245 101//245 103//245
f 100//246 102//246 103//246
f 101//247 100//247 103//247
f 99//248 102//248 100//248
f 104//249 105//249 106//249
f 107//250 104//250 106//250
f 105//251 107//251 106//251
f 105//252 104//252 107//252
f 1//253 108//10 6//12
f 1//254 2//1 108//3
f 4//255 5//4 109//6
f 3//256 2//7 109//9
