# Blender v2.93.7 OBJ File: ''
# www.blender.org
mtllib right_knee.003c.mtl
o right_front_knee_c_right_knee.003
v 0.067768 0.458422 -0.017604
v -0.011331 0.429289 -0.039962
v -0.014190 0.453869 0.013383
v 0.075766 0.384834 -0.049605
v 0.067449 0.420165 0.055551
v -0.011745 0.403398 0.057155
v 0.017329 0.124271 0.019373
v 0.030929 0.119914 -0.003032
v 0.037329 0.108981 -0.005357
v 0.026639 0.121152 0.010525
v 0.022527 -0.184087 -0.004665
v 0.017329 -0.157811 -0.006226
v 0.040177 -0.177810 -0.046832
v 0.017329 -0.154578 0.009672
v 0.032731 -0.147617 0.046179
v 0.067329 0.414131 0.014035
v -0.014594 0.370063 -0.028426
v 0.071296 0.371311 0.010742
v -0.012671 0.410896 -0.003345
v 0.018127 0.173714 -0.005148
v 0.037329 0.243288 0.029614
v 0.040562 0.175327 -0.008074
v 0.017329 0.243258 0.030266
v 0.037329 0.159192 0.044993
v 0.011164 0.125923 -0.056612
v 0.018827 -0.161083 -0.057303
v 0.009693 -0.169571 0.090159
v 0.027329 -0.027873 0.080312
v 0.034776 0.341311 0.028311
v 0.044145 -0.179939 0.084836
v 0.042804 0.125477 -0.058855
v 0.019889 0.341317 0.028351
v 0.057331 0.343464 0.020900
v -0.002673 0.343380 0.020216
v -0.002671 -0.181864 -0.057204
v 0.117830 -0.023194 0.039188
v 0.092406 0.046407 -0.026893
v 0.092395 0.048787 0.036564
v 0.092877 -0.136638 0.061876
v 0.090976 0.093292 0.062652
v 0.092310 -0.139715 -0.054322
v 0.090967 0.094271 -0.053086
v 0.137960 -0.031333 -0.004429
v 0.132347 -0.103027 -0.045117
v 0.126842 -0.146928 -0.004031
v 0.127525 -0.096118 0.063424
v -0.109293 0.080751 -0.055469
v -0.076238 0.034571 -0.054093
v -0.077247 -0.016966 -0.054542
v -0.077396 0.062194 -0.053853
v -0.094196 -0.117580 -0.050825
v -0.038505 0.043380 -0.054020
v -0.033827 -0.045573 -0.054787
v 0.046359 -0.141476 -0.054886
v 0.046219 0.096033 -0.052468
v -0.088609 -0.129774 -0.058267
v -0.039069 -0.000812 -0.054405
v -0.076585 -0.063119 -0.054937
v 0.038858 -0.143416 -0.006850
v 0.043341 -0.167124 0.014224
v 0.040169 -0.175053 0.044189
v 0.044052 -0.175613 -0.048439
v 0.038330 -0.166971 -0.014915
v 0.053077 -0.164573 -0.008899
v 0.053077 -0.149133 0.005394
v 0.049460 -0.152549 0.060230
v 0.042141 0.112698 0.059254
v 0.053077 0.100858 0.002536
v 0.044102 0.129886 -0.045802
v 0.042481 0.126899 0.010208
v 0.053077 0.132390 0.059439
v 0.043628 0.107220 0.015819
v 0.039141 0.110282 -0.016284
v 0.040395 0.100257 0.028572
v -0.109951 0.091318 -0.032287
v -0.088972 -0.127753 0.063301
v -0.110265 0.077196 0.044636
v -0.094609 -0.138769 -0.007875
v -0.100760 -0.126913 -0.001140
v -0.087537 -0.140972 -0.037363
v -0.093288 -0.130697 0.010376
v -0.088229 -0.139659 0.036413
v -0.109033 0.094220 0.062721
v -0.099497 -0.143777 0.015964
v -0.106718 -0.129145 0.011285
v -0.100350 -0.135625 0.009159
v 0.129290 0.010982 -0.008895
v 0.133367 -0.080633 0.024292
v 0.138078 -0.013837 0.010014
v 0.134059 -0.073873 -0.016970
v -0.100350 -0.135625 0.009159
v 0.166914 -0.099644 0.008627
v 0.165063 -0.070310 0.010988
v 0.164589 -0.080127 -0.011105
v 0.127499 -0.083880 0.003256
v -0.106717 -0.132725 0.009834
v -0.105428 -0.143913 0.004315
v 0.068994 -0.152304 -0.011715
v 0.052550 -0.151894 -0.003548
v 0.058746 -0.154753 0.019066
v 0.058299 -0.176280 -0.000794
v -0.009733 -0.159758 0.002036
v 0.059753 0.099714 0.017776
v 0.069602 0.119710 -0.009210
v 0.054290 0.125204 0.011346
v 0.052154 0.112486 -0.005160
v -0.009733 0.113282 0.004392
v 0.031448 0.445944 0.051271
v -0.011400 0.428039 -0.039481
v -0.011396 0.428398 -0.038189
vn -0.2074 0.8842 -0.4185
vn 0.1069 0.4062 -0.9075
vn 0.2358 0.9268 0.2922
vn 0.0159 0.9824 0.1863
vn 0.2721 0.9115 0.3086
vn -0.2072 0.3373 0.9183
vn -0.4657 0.5668 0.6796
vn -0.3151 0.4365 0.8427
vn -0.8189 -0.3898 -0.4213
vn 0.5178 -0.4743 0.7120
vn -0.8927 -0.2006 -0.4035
vn -0.8367 -0.3514 0.4200
vn -0.2189 -0.4347 0.8735
vn -0.4112 -0.1077 0.9052
vn 0.4029 -0.2684 -0.8750
vn -0.4238 0.4885 -0.7628
vn -0.1962 0.5713 0.7970
vn 0.1839 0.3622 -0.9138
vn -0.1473 0.4743 -0.8679
vn -0.0297 0.4533 -0.8909
vn 0.8897 -0.4491 -0.0824
vn -0.0847 -0.4416 -0.8932
vn 0.8937 0.0249 -0.4480
vn 0.6911 -0.7228 0.0012
vn 0.0318 0.1798 0.9832
vn -0.7449 -0.0608 0.6644
vn -0.7671 0.3798 0.5171
vn 0.0294 0.9795 -0.1992
vn 0.3164 0.9094 -0.2699
vn -0.1085 -0.1788 -0.9779
vn -0.9989 -0.0265 -0.0379
vn 0.2835 -0.9587 -0.0240
vn -0.6604 -0.7281 0.1835
vn -0.9697 -0.0590 0.2370
vn -0.9398 -0.0290 -0.3405
vn -0.9740 -0.1017 0.2026
vn -0.9949 0.0046 -0.1004
vn 0.5156 0.1277 -0.8473
vn -0.8606 -0.4552 -0.2284
vn -0.9698 0.1512 -0.1912
vn -0.8777 -0.2066 -0.4324
vn -0.9410 0.1354 -0.3101
vn -0.9668 0.2548 0.0186
vn -0.9751 0.0904 0.2027
vn -0.9911 -0.0121 0.1324
vn -0.9972 0.0246 -0.0709
vn -0.9807 -0.1950 -0.0163
vn -0.9338 0.0313 0.3564
vn -0.9863 -0.1176 -0.1155
vn -0.8991 0.0820 -0.4300
vn -0.9962 -0.0334 0.0801
vn 0.9678 -0.2476 0.0457
vn -0.9777 0.2058 -0.0419
vn 0.2997 0.9540 -0.0036
vn -0.2846 -0.9586 -0.0025
vn -0.9717 -0.0925 0.2174
vn -0.7078 -0.3047 -0.6373
vn 0.3228 -0.1919 0.9268
vn 0.5605 0.0865 0.8236
vn 0.2986 0.1272 0.9459
vn 0.8878 -0.4587 -0.0370
vn -0.9687 -0.2187 0.1174
vn 0.8710 -0.2930 0.3942
vn -0.1994 -0.1764 -0.9639
vn -0.1978 -0.1731 -0.9648
vn -0.2432 -0.2724 -0.9309
vn -0.9850 -0.0464 -0.1664
vn -0.9881 -0.0201 0.1523
vn -0.3467 -0.3320 0.8773
vn 0.0068 -0.0022 1.0000
vn 0.6524 -0.6765 -0.3415
vn -0.3012 -0.9478 0.1043
vn -0.4390 0.1165 0.8909
vn -0.3270 0.1199 0.9374
vn -0.2387 0.0405 0.9702
vn 0.0706 -0.0051 0.9975
vn 0.0396 -0.7122 0.7009
vn -0.0110 -0.1687 0.9856
vn -0.6617 -0.2868 0.6927
vn 0.0239 -0.8650 -0.5013
vn 0.0067 -0.8760 -0.4822
vn 0.1648 0.0417 0.9854
vn 0.0080 0.0578 0.9983
vn 0.0987 -0.9949 -0.0191
vn -0.2721 -0.9568 0.1026
vn -0.9821 0.0470 0.1826
vn -0.9988 -0.0176 -0.0454
vn -0.9991 -0.0146 0.0390
vn -0.9986 0.0525 -0.0102
vn -0.9986 0.0508 -0.0110
vn -0.9986 0.0519 -0.0105
vn -0.9999 0.0108 0.0013
vn -0.9936 -0.0692 -0.0891
vn -0.9955 -0.0935 0.0165
vn 0.9429 0.3327 -0.0123
vn 0.2720 0.1308 0.9534
vn 0.9991 0.0081 0.0405
vn 0.9990 0.0060 -0.0440
vn 0.9995 0.0315 0.0002
vn 0.9995 0.0318 0.0002
vn 0.9996 0.0299 -0.0007
vn 0.9996 0.0295 -0.0009
vn 0.7597 0.2749 -0.5892
vn 0.0935 0.1451 -0.9850
vn 0.6390 -0.5668 -0.5200
vn -0.2417 -0.9700 0.0269
vn 0.6741 -0.5932 0.4400
vn 0.0527 0.0081 -0.9986
vn 0.0559 0.0103 -0.9984
vn 0.0523 0.0077 -0.9986
vn 0.0570 0.0111 -0.9983
vn -0.0552 -0.0276 -0.9981
vn -0.2335 -0.4752 -0.8484
vn 0.0006 0.0101 -0.9999
vn 0.0118 0.0105 -0.9999
vn 0.0119 0.0109 -0.9999
vn 0.0195 -0.0019 -0.9998
vn 0.0271 0.0237 -0.9994
vn -0.0000 0.0087 -1.0000
vn 0.0130 0.0085 -0.9999
vn 0.0101 0.0086 -0.9999
vn -0.6516 0.1546 -0.7426
vn -0.0000 0.0086 -1.0000
vn -0.0183 0.0532 -0.9984
vn 0.0063 0.0053 -1.0000
vn -0.0001 0.0087 -1.0000
vn -0.2415 0.0048 -0.9704
vn -0.0126 0.0311 -0.9994
vn -0.9211 -0.3411 -0.1878
vn -0.6059 -0.7893 0.1000
vn -0.9723 0.2297 -0.0421
vn 0.3179 0.3007 -0.8992
vn 0.6710 0.5037 -0.5441
vn -0.3940 0.5679 0.7227
vn 0.3416 0.9363 0.0809
vn -0.6019 0.7808 -0.1673
vn 0.9909 0.0915 -0.0988
vn 0.8851 -0.4645 0.0294
vn 0.3457 -0.9213 0.1783
vn 0.9756 -0.1026 -0.1940
vn -0.3534 -0.9270 0.1254
vn 0.9300 0.3647 0.0464
vn 0.5594 -0.8284 -0.0280
vn 0.9777 -0.0029 -0.2101
vn 0.8703 -0.4842 0.0909
vn 0.4600 0.8828 -0.0956
vn 0.9875 0.0875 -0.1308
vn 0.8123 0.4425 -0.3799
vn -0.9374 -0.1450 -0.3168
vn -0.7430 0.6485 0.1657
vn 0.9890 -0.1435 -0.0347
vn -0.9578 0.2859 0.0289
vn -0.9971 -0.0758 0.0062
vn -0.9962 -0.0786 0.0386
vn -0.9942 -0.1054 -0.0234
vn -0.9101 -0.3680 -0.1903
vn -0.9114 -0.3655 -0.1891
vn -0.9111 -0.3660 -0.1893
vn -0.9098 -0.3687 -0.1906
vn -0.4828 0.8701 0.0997
vn -0.5584 -0.8245 0.0914
vn -0.9583 -0.2702 0.0932
vn -0.0646 -0.8810 -0.4686
vn -0.0092 -0.9991 -0.0418
vn -0.2665 -0.9637 0.0147
vn 0.1106 -0.8435 -0.5257
vn -0.1533 -0.9051 0.3965
vn -0.1927 -0.5156 0.8349
vn 0.1744 -0.9841 -0.0352
vn -0.0710 -0.0040 0.9975
vn 0.0084 0.0122 0.9999
vn 0.0224 0.0046 0.9997
vn -0.9846 -0.0886 0.1505
vn 0.0024 -0.1095 0.9940
vn 0.9130 -0.4060 0.0407
vn 0.3432 -0.9390 0.0232
vn 0.0393 -0.9945 -0.0967
vn -0.5594 -0.8289 -0.0009
vn 0.3739 0.9192 -0.1235
vn 0.0395 0.9992 0.0084
vn -0.8728 0.4841 0.0629
vn -0.0810 0.9061 -0.4153
vn -0.0767 0.9225 -0.3783
vn -0.1247 0.9676 0.2197
vn -0.1430 0.9736 0.1781
vn -0.1786 0.9153 -0.3610
vn -0.1045 0.7277 -0.6779
vn 0.3112 -0.9501 0.0198
vn -0.9676 -0.1182 -0.2232
vn -0.9781 0.0867 -0.1893
vn -0.9875 0.0379 -0.1527
vn -0.3395 0.2557 0.9052
vn -0.9829 -0.0256 -0.1822
vn -0.9956 0.0914 0.0196
vn -0.9151 0.3891 -0.1059
vn 0.1295 0.9451 0.3001
vn -0.8270 -0.2465 0.5053
vn -0.6884 -0.5059 -0.5198
vn -0.0322 0.2829 -0.9586
vn 0.4337 -0.0062 -0.9010
vn 0.3876 0.7052 0.5936
vn 0.9295 0.3429 0.1360
vn 0.9957 -0.0788 0.0492
vn 0.9733 -0.2222 0.0574
vn 0.9542 0.2006 0.2218
vn 0.8094 0.0676 0.5834
vn 0.9965 -0.0572 0.0612
vn 0.5340 0.6239 0.5707
vn 0.9958 -0.0918 0.0017
vn 0.9932 -0.1055 0.0488
vn 0.9603 0.1737 -0.2183
vn 0.0000 0.0000 1.0000
vn 0.8181 0.5709 0.0701
vn 0.8119 0.5667 -0.1399
vn 0.0979 -0.9355 0.3396
vn 0.0801 -0.7652 -0.6388
vn 0.4885 -0.5285 -0.6943
vn 0.3999 -0.0484 0.9153
vn -0.3654 -0.8843 0.2907
vn -0.2476 0.9568 0.1526
vn 0.7409 0.4435 -0.5044
vn 0.2568 0.8811 -0.3970
vn -0.0108 -0.7116 -0.7025
vn -0.1696 -0.0897 0.9814
vn -0.2409 0.8888 -0.3898
vn -0.1911 -0.7090 -0.6788
vn -0.8388 -0.1357 -0.5272
vn -0.7734 0.2065 -0.5993
vn 0.3864 0.7117 0.5867
vn -0.1110 -0.4499 0.8861
vn 0.6443 -0.7156 0.2699
vn -0.5085 -0.8300 -0.2291
vn -0.4675 -0.7632 0.4460
vn -0.0426 0.9063 -0.4206
vn -0.0304 0.6455 0.7631
vn 0.8787 -0.3466 -0.3282
vn -0.7118 0.3841 0.5881
vn 0.0766 0.9916 0.1044
vn -0.0724 -0.1288 -0.9890
vn -0.1101 0.9819 0.1543
vn -0.1325 -0.6706 0.7299
vn -0.9172 0.2802 -0.2831
vn -0.4396 -0.2025 -0.8751
vn 0.8014 0.3020 0.5163
vn -0.4272 0.7421 -0.5165
vn -0.0826 0.7946 -0.6015
vn -0.1446 0.2128 0.9663
vn -0.0829 -0.8821 -0.4637
vn 0.2170 -0.8205 -0.5288
vn -0.0114 0.1483 0.9889
vn 0.5007 0.7662 0.4028
vn -0.9985 0.0531 -0.0099
vn -0.2700 -0.3330 -0.9035
usemtl Default_OBJ.009
s 1
f 1//1 2//1 3//1
f 1//2 4//2 2//2
f 1//3 3//4 108//5
f 108//6 3//7 6//8
f 7//9 8//9 9//9
f 7//10 9//10 10//10
f 11//11 12//11 13//11
f 14//12 11//12 15//12
f 16//13 3//13 17//13
f 18//14 16//14 17//14
f 1//15 18//15 17//15
f 1//16 17//16 19//16
f 16//17 1//17 19//17
f 16//18 19//18 3//18
f 20//19 21//19 22//19
f 20//20 23//20 21//20
f 7//21 22//21 24//21
f 7//22 20//22 22//22
f 25//23 9//23 26//23
f 15//24 27//24 26//24
f 23//25 24//25 21//25
f 23//26 7//26 24//26
f 28//27 9//27 25//27
f 12//28 14//28 15//28
f 12//29 15//29 13//29
f 21//30 24//30 28//30
f 29//31 22//31 21//31
f 11//32 13//32 30//32
f 15//33 26//33 13//33
f 15//34 11//34 30//34
f 29//35 21//35 28//35
f 30//36 28//36 15//36
f 31//37 13//37 9//37
f 9//38 13//38 26//38
f 8//39 31//39 9//39
f 22//40 31//40 8//40
f 28//41 10//41 9//41
f 22//42 8//42 10//42
f 24//43 22//43 10//43
f 24//44 10//44 28//44
f 23//45 7//45 28//45
f 32//46 20//46 23//46
f 12//47 26//47 11//47
f 32//48 23//48 28//48
f 27//49 14//49 11//49
f 27//50 28//50 15//50
f 25//51 28//51 7//51
f 27//52 26//52 14//52
f 14//53 26//53 12//53
f 7//54 8//54 25//54
f 10//55 25//55 8//55
f 20//56 25//56 10//56
f 7//57 20//57 10//57
f 29//58 22//58 33//58
f 33//59 28//59 30//59
f 29//60 28//60 33//60
f 4//61 18//61 33//61
f 34//62 6//62 17//62
f 18//63 5//63 33//63
f 4//64 17//65 109//66
f 6//67 34//67 27//67
f 32//68 25//68 20//68
f 34//69 25//69 32//69
f 25//70 35//70 26//70
f 35//71 26//71 11//71
f 27//72 35//72 11//72
f 32//73 27//73 28//73
f 34//74 27//74 32//74
f 31//75 35//75 13//75
f 31//76 25//76 35//76
f 25//77 31//77 22//77
f 34//78 22//78 33//78
f 34//79 25//79 22//79
f 17//80 4//80 33//80
f 34//81 17//81 33//81
f 5//82 27//82 30//82
f 6//83 27//83 5//83
f 35//84 13//84 30//84
f 27//85 35//85 30//85
f 5//86 33//86 30//86
f 3//87 2//87 110//87
f 6//88 3//88 17//88
f 110//89 2//90 109//91
f 5//92 1//92 16//92
f 1//93 4//93 18//93
f 5//94 16//94 18//94
f 36//95 37//95 38//95
f 39//96 36//96 38//96
f 39//97 38//97 40//97
f 41//98 42//98 37//98
f 42//99 40//100 38//101
f 37//102 42//99 38//101
f 37//103 43//103 44//103
f 41//104 37//104 44//104
f 41//105 44//105 45//105
f 39//106 41//106 45//106
f 39//107 45//107 46//107
f 47//108 48//109 49//110
f 47//108 50//111 48//109
f 47//112 49//112 51//112
f 47//113 52//113 50//113
f 53//114 41//115 54//116
f 47//117 55//117 52//117
f 53//118 54//118 56//118
f 52//119 55//120 57//121
f 51//122 58//122 56//122
f 57//121 41//115 53//114
f 49//123 52//119 57//121
f 58//124 53//124 56//124
f 57//121 42//125 41//115
f 50//126 52//119 48//126
f 49//123 53//114 58//123
f 49//123 57//121 53//114
f 49//127 58//127 51//127
f 48//126 52//119 49//123
f 55//128 42//128 57//128
f 59//129 60//129 61//129
f 62//130 60//130 63//130
f 62//131 61//131 60//131
f 64//132 63//132 59//132
f 65//133 64//133 59//133
f 60//134 65//134 59//134
f 54//135 66//135 65//135
f 64//136 60//136 66//136
f 54//137 65//137 64//137
f 60//138 65//138 66//138
f 62//139 64//139 66//139
f 62//140 54//140 64//140
f 67//141 55//141 68//141
f 69//142 70//142 68//142
f 69//143 71//143 70//143
f 70//144 71//144 72//144
f 72//145 71//145 67//145
f 68//146 72//146 67//146
f 55//147 69//147 68//147
f 70//148 68//148 73//148
f 70//149 72//149 74//149
f 73//150 74//150 72//150
f 73//151 70//151 67//151
f 69//152 73//152 67//152
f 51//153 75//153 47//153
f 76//154 75//154 51//154
f 76//155 77//155 75//155
f 78//156 79//157 51//158
f 78//156 51//158 80//159
f 76//160 51//160 79//160
f 76//161 79//161 81//161
f 76//162 81//162 82//162
f 54//163 80//163 56//163
f 59//164 80//164 54//164
f 61//165 82//165 80//165
f 61//166 80//166 59//166
f 66//167 76//167 82//167
f 66//168 82//168 61//168
f 64//169 60//169 63//169
f 67//170 39//170 40//170
f 67//171 76//171 39//171
f 83//172 76//172 67//172
f 77//173 76//173 83//173
f 76//174 66//174 39//174
f 62//175 66//175 61//175
f 41//176 39//176 66//176
f 54//177 41//177 66//177
f 68//178 72//178 73//178
f 55//179 67//179 40//179
f 42//180 55//180 40//180
f 69//181 67//181 71//181
f 75//182 55//182 47//182
f 75//183 73//183 55//183
f 77//184 74//184 73//184
f 77//185 73//185 75//185
f 77//186 67//186 74//186
f 83//187 67//187 77//187
f 80//188 82//188 84//188
f 80//189 84//189 78//189
f 59//190 62//190 63//190
f 59//191 54//191 62//191
f 39//192 46//192 36//192
f 73//193 69//193 55//193
f 67//194 70//194 74//194
f 78//195 84//195 81//195
f 82//196 81//196 85//196
f 82//197 85//197 84//197
f 86//198 84//198 85//198
f 81//199 86//199 85//199
f 37//200 87//200 43//200
f 37//201 36//201 87//201
f 51//202 80//202 56//202
f 44//203 46//203 45//203
f 44//204 88//204 46//204
f 88//205 36//205 46//205
f 89//206 36//206 88//206
f 43//207 89//207 88//207
f 89//208 87//208 36//208
f 43//209 88//209 90//209
f 43//210 90//210 44//210
f 87//211 89//211 43//211
f 91//212 86//213 81//214
f 91//215 84//216 86//212
f 81//217 84//217 91//217
f 88//218 92//218 93//218
f 88//219 44//219 92//219
f 90//220 88//220 93//220
f 44//221 90//221 92//221
f 90//222 93//222 94//222
f 90//223 94//223 92//223
f 95//224 92//224 93//224
f 95//225 93//225 94//225
f 95//226 94//226 92//226
f 79//227 78//227 96//227
f 78//228 97//228 96//228
f 86//229 79//229 96//229
f 97//230 86//230 96//230
f 78//231 81//231 97//231
f 91//212 86//232 97//233
f 91//234 79//235 86//212
f 97//236 79//236 91//236
f 81//237 79//237 97//237
f 98//238 99//238 100//238
f 99//239 101//239 102//239
f 100//240 99//240 102//240
f 101//241 100//241 102//241
f 98//242 101//242 100//242
f 98//243 101//243 99//243
f 103//244 104//244 105//244
f 104//245 106//245 105//245
f 105//246 106//246 107//246
f 103//247 105//247 107//247
f 106//248 103//248 107//248
f 104//249 103//249 106//249
f 5//250 108//6 6//8
f 5//251 1//3 108//5
f 19//252 110//89 109//91 17//252
f 2//253 4//64 109//66
f 19//87 3//87 110//87
